<svg width="48" height="48" viewBox="0 0 48 48" fill="none" xmlns="http://www.w3.org/2000/svg">
<g clip-path="url(#clip0_9_194)">
<path d="M40.6625 8.59965C37.6669 7.22513 34.4545 6.21244 31.0958 5.63244C31.0346 5.62124 30.9735 5.64922 30.942 5.70517C30.5289 6.43996 30.0713 7.39857 29.7508 8.15202C26.1383 7.61119 22.5443 7.61119 19.0059 8.15202C18.6854 7.38182 18.2111 6.43996 17.7961 5.70517C17.7646 5.65109 17.7035 5.62311 17.6423 5.63244C14.2855 6.21059 11.0731 7.22328 8.07566 8.59965C8.04972 8.61083 8.02747 8.6295 8.01271 8.65373C1.91956 17.7568 0.250389 26.6361 1.06923 35.4053C1.07293 35.4482 1.09702 35.4892 1.13036 35.5153C5.15045 38.4676 9.04459 40.2598 12.8664 41.4478C12.9276 41.4665 12.9924 41.4441 13.0313 41.3937C13.9354 40.1592 14.7413 38.8574 15.4322 37.4884C15.473 37.4083 15.4341 37.3131 15.3507 37.2814C14.0725 36.7965 12.8553 36.2053 11.6845 35.534C11.5919 35.4799 11.5844 35.3474 11.6696 35.284C11.916 35.0994 12.1625 34.9073 12.3977 34.7133C12.4403 34.6779 12.4996 34.6704 12.5497 34.6928C20.2415 38.2046 28.5689 38.2046 36.17 34.6928C36.22 34.6686 36.2793 34.676 36.3237 34.7115C36.5591 34.9054 36.8054 35.0994 37.0537 35.284C37.1389 35.3474 37.1333 35.4799 37.0407 35.534C35.8699 36.2184 34.6527 36.7965 33.3726 37.2796C33.2892 37.3113 33.2522 37.4083 33.293 37.4884C33.9987 38.8555 34.8046 40.1572 35.692 41.3919C35.7291 41.4441 35.7957 41.4665 35.8569 41.4478C39.6973 40.2598 43.5914 38.4676 47.6115 35.5153C47.6467 35.4892 47.6689 35.45 47.6726 35.4071C48.6526 25.269 46.0312 16.4625 40.7236 8.65558C40.7106 8.6295 40.6884 8.61083 40.6625 8.59965ZM16.5809 30.0657C14.2651 30.0657 12.357 27.9397 12.357 25.3287C12.357 22.7177 14.2281 20.5916 16.5809 20.5916C18.9521 20.5916 20.8418 22.7363 20.8047 25.3287C20.8047 27.9397 18.9336 30.0657 16.5809 30.0657ZM32.198 30.0657C29.8823 30.0657 27.9742 27.9397 27.9742 25.3287C27.9742 22.7177 29.8453 20.5916 32.198 20.5916C34.5694 20.5916 36.459 22.7363 36.422 25.3287C36.422 27.9397 34.5694 30.0657 32.198 30.0657Z" fill="#5865F2"/>
</g>
<defs>
<clipPath id="clip0_9_194">
<rect width="47" height="47" fill="white" transform="translate(0.875 0.461548)"/>
</clipPath>
</defs>
</svg>
