<svg width="48" height="48" viewBox="0 0 48 48" fill="none" xmlns="http://www.w3.org/2000/svg">
<g clip-path="url(#clip0_9_198)">
<path fill-rule="evenodd" clip-rule="evenodd" d="M23.6444 0.461548C10.6388 0.461548 0.125 11.0529 0.125 24.1557C0.125 34.6296 6.86155 43.4955 16.2069 46.6334C17.3754 46.8693 17.8033 46.1236 17.8033 45.4963C17.8033 44.947 17.7648 43.0641 17.7648 41.1023C11.2223 42.5148 9.85986 38.2778 9.85986 38.2778C8.80843 35.5318 7.25054 34.826 7.25054 34.826C5.10917 33.3745 7.40652 33.3745 7.40652 33.3745C9.78187 33.5315 11.0283 35.8067 11.0283 35.8067C13.1306 39.4154 16.5184 38.3958 17.8813 37.768C18.0758 36.238 18.6993 35.1789 19.3612 34.5906C14.1431 34.0413 8.65293 32.0015 8.65293 22.9002C8.65293 20.3111 9.58689 18.1928 11.0668 16.5454C10.8333 15.9571 10.0154 13.5245 11.3008 10.2686C11.3008 10.2686 13.2866 9.64084 17.7643 12.7008C19.6814 12.1821 21.6585 11.9183 23.6444 11.916C25.6303 11.916 27.6547 12.1909 29.5241 12.7008C34.0023 9.64084 35.9881 10.2686 35.9881 10.2686C37.2735 13.5245 36.4551 15.9571 36.2216 16.5454C37.7405 18.1928 38.636 20.3111 38.636 22.9002C38.636 32.0015 33.1458 34.0018 27.8887 34.5906C28.7456 35.3358 29.4851 36.7479 29.4851 38.9841C29.4851 42.1615 29.4466 44.7116 29.4466 45.4958C29.4466 46.1236 29.875 46.8693 31.043 46.6339C40.3883 43.495 47.1249 34.6296 47.1249 24.1557C47.1634 11.0529 36.6111 0.461548 23.6444 0.461548Z" fill="#BFBFBF"/>
</g>
<defs>
<clipPath id="clip0_9_198">
<rect width="47" height="47" fill="white" transform="translate(0.125 0.461548)"/>
</clipPath>
</defs>
</svg>
