<svg width="47" height="48" viewBox="0 0 47 48" fill="none" xmlns="http://www.w3.org/2000/svg">
<g clip-path="url(#clip0_9_206)">
<path d="M23.5 47.4615C36.4787 47.4615 47 36.9402 47 23.9615C47 10.9829 36.4787 0.461548 23.5 0.461548C10.5213 0.461548 0 10.9829 0 23.9615C0 36.9402 10.5213 47.4615 23.5 47.4615Z" fill="url(#paint0_linear_9_206)"/>
<path fill-rule="evenodd" clip-rule="evenodd" d="M10.6374 23.7134C17.4882 20.7287 22.0564 18.761 24.3421 17.8103C30.8683 15.0958 32.2244 14.6243 33.1083 14.6087C33.3027 14.6053 33.7373 14.6534 34.0189 14.8819C34.2566 15.0748 34.3221 15.3354 34.3534 15.5183C34.3847 15.7012 34.4236 16.1179 34.3927 16.4434C34.039 20.1593 32.5087 29.1768 31.7302 33.3387C31.4008 35.0998 30.7522 35.6902 30.1242 35.748C28.7595 35.8736 27.7232 34.8461 26.4015 33.9797C24.3332 32.6239 23.1647 31.7799 21.1571 30.4569C18.8369 28.9279 20.3409 28.0876 21.6632 26.7142C22.0093 26.3548 28.0221 20.8857 28.1385 20.3895C28.153 20.3275 28.1665 20.0962 28.0291 19.9741C27.8917 19.8519 27.6889 19.8937 27.5426 19.9269C27.3351 19.974 24.031 22.1579 17.6301 26.4786C16.6923 27.1227 15.8428 27.4364 15.0817 27.42C14.2426 27.4019 12.6286 26.9456 11.4287 26.5555C9.957 26.0772 8.78733 25.8242 8.88918 25.0118C8.94223 24.5886 9.52498 24.1558 10.6374 23.7134Z" fill="#BFBFBF"/>
</g>
<defs>
<linearGradient id="paint0_linear_9_206" x1="23.5" y1="0.461548" x2="23.5" y2="47.113" gradientUnits="userSpaceOnUse">
<stop stop-color="#2AABEE"/>
<stop offset="1" stop-color="#229ED9"/>
</linearGradient>
<clipPath id="clip0_9_206">
<rect width="47" height="47" fill="white" transform="translate(0 0.461548)"/>
</clipPath>
</defs>
</svg>
